<svg width="270" height="84" viewBox="0 0 270 84" fill="none" xmlns="http://www.w3.org/2000/svg">
<path d="M56.7287 14.8235H27.1847C20.386 14.8235 14.8746 20.3541 14.8746 27.1764V56.8235C14.8746 63.6458 20.386 69.1764 27.1847 69.1764H56.7287C63.5274 69.1764 69.0388 63.6458 69.0388 56.8235V27.1764C69.0388 20.3541 63.5274 14.8235 56.7287 14.8235Z" fill="#515151"/>
<path d="M29.7419 25.7944C32.7791 23.5314 36.3688 22.1634 40.1101 21.8235V28.0487C37.6917 28.3639 35.382 29.2949 33.4063 30.767C30.9324 32.6103 29.1132 35.2041 28.2169 38.166C27.3206 41.128 27.3947 44.3013 28.4283 47.2174C29.4619 50.1339 31.4002 52.6391 33.9573 54.3635C36.5145 56.088 39.5551 56.9404 42.6308 56.795C45.7063 56.6496 48.6541 55.5144 51.0389 53.5565C53.4242 51.5985 55.1205 48.9217 55.8776 45.9203C56.4053 43.8273 56.457 41.6536 56.0434 39.5582L61.2423 35.3556L61.239 35.3217C62.6424 39.2034 62.8566 43.4263 61.8434 47.4422C60.7618 51.7295 58.3388 55.5535 54.9318 58.3506C51.5244 61.1478 47.3135 62.7697 42.9197 62.9772C38.5259 63.1848 34.1822 61.9672 30.5291 59.5036C26.876 57.04 24.107 53.4614 22.6304 49.2951C21.1539 45.1289 21.048 40.5957 22.3285 36.3644C23.6089 32.1331 26.2078 28.4276 29.7419 25.7944Z" fill="#ECECEC"/>
<path d="M57.4362 28.6828L57.4579 28.7381L53.952 34.3227C52.6771 32.4278 50.9685 30.8506 48.9689 29.7342V42.443C48.9689 46.3424 45.8171 49.5031 41.9292 49.5031C38.0414 49.5031 34.8896 46.3424 34.8896 42.443C34.8896 38.5438 38.0414 35.3829 41.9292 35.3829C43.3863 35.3829 44.74 35.8269 45.8631 36.5873V22.0522C50.4338 22.9339 54.4694 25.3227 57.4362 28.6828Z" fill="#ECECEC"/>
<path d="M82.3861 22.1884H91.6753V34.5882H90.038V23.6756H84.0061V34.5882H82.3861V22.1884Z" fill="#515151"/>
<path d="M98.0186 34.7612C97.4097 34.7612 96.8409 34.6575 96.3124 34.4499C95.7839 34.2424 95.3243 33.9426 94.9337 33.5506C94.5545 33.1471 94.2558 32.6571 94.0375 32.0806C93.8192 31.5042 93.7101 30.8412 93.7101 30.0918C93.7101 29.3539 93.8192 28.6968 94.0375 28.1203C94.2558 27.5323 94.5545 27.0423 94.9337 26.6503C95.3243 26.2583 95.7839 25.9585 96.3124 25.751C96.8409 25.5435 97.4097 25.4397 98.0186 25.4397C98.639 25.4397 99.2135 25.5435 99.742 25.751C100.271 25.9585 100.724 26.2583 101.103 26.6503C101.494 27.0423 101.799 27.5323 102.017 28.1203C102.247 28.6968 102.362 29.3539 102.362 30.0918C102.362 30.8412 102.247 31.5042 102.017 32.0806C101.799 32.6571 101.494 33.1471 101.103 33.5506C100.724 33.9426 100.271 34.2424 99.742 34.4499C99.2135 34.6575 98.639 34.7612 98.0186 34.7612ZM98.0186 33.395C98.4207 33.395 98.7884 33.3316 99.1216 33.2048C99.4663 33.0664 99.765 32.8646 100.018 32.5995C100.271 32.3228 100.466 31.9769 100.604 31.5618C100.742 31.1468 100.811 30.6568 100.811 30.0918C100.811 29.5269 100.742 29.0369 100.604 28.6218C100.466 28.2068 100.271 27.8666 100.018 27.6015C99.765 27.3248 99.4663 27.123 99.1216 26.9962C98.7884 26.8578 98.4207 26.7886 98.0186 26.7886C97.6165 26.7886 97.2488 26.8578 96.9156 26.9962C96.5824 27.123 96.2894 27.3248 96.0367 27.6015C95.7954 27.8666 95.6058 28.2068 95.468 28.6218C95.3301 29.0369 95.2611 29.5269 95.2611 30.0918C95.2611 30.6568 95.3301 31.1468 95.468 31.5618C95.6058 31.9769 95.7954 32.3228 96.0367 32.5995C96.2894 32.8646 96.5824 33.0664 96.9156 33.2048C97.2488 33.3316 97.6165 33.395 98.0186 33.395Z" fill="#515151"/>
<path d="M108.071 34.7612C107.381 34.7612 106.755 34.6575 106.192 34.4499C105.641 34.2309 105.17 33.9253 104.779 33.5333C104.388 33.1298 104.09 32.6398 103.883 32.0633C103.676 31.4869 103.573 30.8297 103.573 30.0918C103.573 29.3655 103.676 28.714 103.883 28.1376C104.101 27.5611 104.405 27.0769 104.796 26.6849C105.187 26.2813 105.664 25.9758 106.227 25.7683C106.79 25.5492 107.427 25.4397 108.14 25.4397C108.691 25.4397 109.197 25.5031 109.656 25.6299C110.116 25.7452 110.495 25.9182 110.794 26.1488V27.515C110.426 27.2729 110.012 27.0942 109.553 26.9789C109.105 26.852 108.639 26.7886 108.157 26.7886C107.111 26.7886 106.341 27.0596 105.847 27.6015C105.365 28.1433 105.124 28.9735 105.124 30.0918C105.124 31.2102 105.359 32.0403 105.83 32.5822C106.301 33.124 107.048 33.395 108.071 33.395C108.611 33.395 109.105 33.3316 109.553 33.2048C110.012 33.0664 110.426 32.8935 110.794 32.6859V34.0522C110.472 34.2482 110.081 34.4153 109.622 34.5537C109.174 34.692 108.657 34.7612 108.071 34.7612Z" fill="#515151"/>
<path d="M113.517 31.8038C113.677 31.2158 113.781 30.4203 113.827 29.4173C113.873 28.4142 113.896 27.146 113.896 25.6125H119.91V34.5882H118.377V26.9096H115.326C115.315 28.1433 115.274 29.2385 115.206 30.1955C115.148 31.1524 115.016 31.9595 114.809 32.6167C114.614 33.2738 114.321 33.7754 113.93 34.1213C113.551 34.4556 113.04 34.6228 112.396 34.6228C112.35 34.6228 112.304 34.6228 112.258 34.6228C112.213 34.6228 112.161 34.617 112.103 34.6055V33.1009C112.161 33.1124 112.236 33.1182 112.327 33.1182C112.913 33.1182 113.31 32.6801 113.517 31.8038Z" fill="#515151"/>
<path d="M126.765 34.4844C126.558 35.0263 126.339 35.499 126.11 35.9025C125.88 36.3176 125.621 36.6693 125.334 36.9575C125.047 37.2457 124.725 37.459 124.369 37.5974C124.013 37.7473 123.605 37.8222 123.145 37.8222C122.916 37.8222 122.703 37.8049 122.508 37.7703C122.312 37.7473 122.134 37.7011 121.974 37.632V36.162C122.1 36.2542 122.261 36.3234 122.456 36.3695C122.651 36.4271 122.864 36.456 123.094 36.456C123.519 36.456 123.869 36.3522 124.145 36.1447C124.421 35.9487 124.685 35.6316 124.938 35.1935L121.301 25.6125H122.973L125.817 33.1874L128.643 25.6125H130.108L126.765 34.4844Z" fill="#515151"/>
<path d="M142.777 34.5882H131.609V25.6125H133.126V33.2911H136.435V25.6125H137.951V33.2911H141.26V25.6125H142.777V34.5882Z" fill="#515151"/>
<path d="M150.498 32.8762C150.395 33.0837 150.262 33.3028 150.102 33.5333C149.941 33.7524 149.74 33.9542 149.498 34.1386C149.257 34.3231 148.97 34.473 148.637 34.5883C148.315 34.7036 147.936 34.7612 147.499 34.7612C146.695 34.7612 146.046 34.5364 145.552 34.0868C145.058 33.6256 144.811 32.9684 144.811 32.1152C144.811 31.1352 145.15 30.4146 145.827 29.9535C146.517 29.4923 147.493 29.2617 148.757 29.2617H150.429V28.5181C150.429 27.8955 150.268 27.4516 149.946 27.1864C149.625 26.9212 149.073 26.7886 148.292 26.7886C147.74 26.7886 147.218 26.8809 146.724 27.0653C146.23 27.2383 145.787 27.44 145.397 27.6706V26.3044C145.718 26.1084 146.149 25.9182 146.689 25.7337C147.241 25.5377 147.844 25.4397 148.499 25.4397C149.625 25.4397 150.481 25.6761 151.067 26.1488C151.653 26.6099 151.946 27.3305 151.946 28.3105V33.1356C151.946 33.2393 151.946 33.3604 151.946 33.4988C151.957 33.6256 151.963 33.7582 151.963 33.8965C151.974 34.0349 151.986 34.1675 151.997 34.2943C152.009 34.4096 152.02 34.5076 152.032 34.5883H150.653C150.619 34.4269 150.584 34.202 150.55 33.9138C150.527 33.614 150.515 33.3546 150.515 33.1356L150.498 32.8762ZM147.827 33.395C148.298 33.395 148.7 33.297 149.033 33.101C149.366 32.905 149.636 32.6802 149.843 32.4265C150.05 32.1613 150.199 31.9077 150.291 31.6656C150.383 31.4119 150.429 31.2332 150.429 31.1295V30.4723H148.912C148.005 30.4723 147.344 30.6049 146.93 30.87C146.528 31.1237 146.327 31.5099 146.327 32.0288C146.327 32.4323 146.448 32.7609 146.689 33.0145C146.93 33.2682 147.31 33.395 147.827 33.395Z" fill="#515151"/>
<path d="M158.277 24.4193C157.817 24.4193 157.415 24.3616 157.07 24.2463C156.737 24.1195 156.456 23.9523 156.226 23.7448C156.008 23.5257 155.841 23.2778 155.726 23.0011C155.623 22.7129 155.571 22.4016 155.571 22.0673H157.088C157.088 22.5054 157.191 22.8224 157.398 23.0184C157.616 23.2144 157.909 23.3124 158.277 23.3124C158.644 23.3124 158.932 23.2144 159.138 23.0184C159.345 22.8224 159.449 22.5054 159.449 22.0673H160.965C160.965 22.7244 160.741 23.2836 160.293 23.7448C159.856 24.1944 159.184 24.4193 158.277 24.4193ZM155.847 32.5129L160.62 25.6126H162.154V34.5882H160.638V27.7051L155.881 34.5882H154.33V25.6126H155.847V32.5129Z" fill="#515151"/>
<path d="M168.232 26.9096V34.5882H166.716V26.9096H163.906V25.6125H171.093V26.9096H168.232Z" fill="#515151"/>
<path d="M179.708 33.8273C179.582 33.9196 179.427 34.0176 179.243 34.1213C179.059 34.2251 178.835 34.3289 178.571 34.4326C178.307 34.5249 178.008 34.5998 177.675 34.6575C177.342 34.7266 176.968 34.7612 176.555 34.7612C175.05 34.7612 173.906 34.3519 173.125 33.5333C172.344 32.7148 171.953 31.5676 171.953 30.0918C171.953 29.3655 172.057 28.714 172.263 28.1376C172.482 27.5611 172.78 27.0769 173.16 26.6849C173.539 26.2813 173.987 25.9758 174.504 25.7683C175.021 25.5492 175.584 25.4397 176.193 25.4397C176.836 25.4397 177.411 25.5492 177.916 25.7683C178.422 25.9873 178.835 26.3102 179.157 26.7368C179.49 27.1633 179.714 27.6937 179.829 28.3278C179.955 28.9504 179.955 29.6768 179.829 30.5069H173.521C173.579 31.4753 173.866 32.2017 174.383 32.6859C174.9 33.1586 175.67 33.395 176.692 33.395C177.382 33.395 177.974 33.297 178.468 33.101C178.962 32.905 179.375 32.6917 179.708 32.4611V33.8273ZM176.158 26.7886C175.503 26.7886 174.94 26.9904 174.469 27.3939C173.998 27.7975 173.7 28.4085 173.573 29.2271H178.381C178.427 28.397 178.238 27.7859 177.813 27.3939C177.388 26.9904 176.836 26.7886 176.158 26.7886Z" fill="#515151"/>
<path d="M191.493 30.6105H187.167V34.5882H185.651V25.6125H187.167V29.3135H191.493V25.6125H193.01V34.5882H191.493V30.6105Z" fill="#515151"/>
<path d="M200.736 32.8762C200.633 33.0837 200.5 33.3028 200.339 33.5333C200.178 33.7524 199.977 33.9542 199.736 34.1386C199.495 34.3231 199.208 34.473 198.875 34.5883C198.553 34.7036 198.174 34.7612 197.737 34.7612C196.933 34.7612 196.284 34.5364 195.79 34.0868C195.296 33.6256 195.049 32.9684 195.049 32.1152C195.049 31.1352 195.388 30.4146 196.066 29.9535C196.755 29.4923 197.731 29.2617 198.995 29.2617H200.667V28.5181C200.667 27.8955 200.506 27.4516 200.184 27.1864C199.863 26.9212 199.311 26.7886 198.53 26.7886C197.978 26.7886 197.456 26.8809 196.962 27.0653C196.468 27.2383 196.025 27.44 195.634 27.6706V26.3044C195.956 26.1084 196.387 25.9182 196.927 25.7337C197.479 25.5377 198.082 25.4397 198.737 25.4397C199.863 25.4397 200.719 25.6761 201.305 26.1488C201.891 26.6099 202.184 27.3305 202.184 28.3105V33.1356C202.184 33.2393 202.184 33.3604 202.184 33.4988C202.195 33.6256 202.201 33.7582 202.201 33.8965C202.212 34.0349 202.224 34.1675 202.235 34.2943C202.247 34.4096 202.258 34.5076 202.27 34.5883H200.891C200.857 34.4269 200.822 34.202 200.788 33.9138C200.765 33.614 200.753 33.3546 200.753 33.1356L200.736 32.8762ZM198.065 33.395C198.536 33.395 198.938 33.297 199.271 33.101C199.604 32.905 199.874 32.6802 200.081 32.4265C200.288 32.1613 200.437 31.9077 200.529 31.6656C200.621 31.4119 200.667 31.2332 200.667 31.1295V30.4723H199.15C198.243 30.4723 197.582 30.6049 197.168 30.87C196.766 31.1237 196.565 31.5099 196.565 32.0288C196.565 32.4323 196.686 32.7609 196.927 33.0145C197.168 33.2682 197.548 33.395 198.065 33.395Z" fill="#515151"/>
<path d="M90.6733 60.9412H94.0495V41.4812H89.1386C84.1998 41.4812 81.6049 44.0292 81.6049 47.7812C81.6049 50.7772 83.0279 52.5412 85.5671 54.3612L81.1584 60.9412H84.8137L89.7246 53.5772L88.0225 52.4292C85.9577 51.0292 84.9532 49.9372 84.9532 47.5852C84.9532 45.5132 86.4042 44.1132 89.1665 44.1132H90.6733V60.9412ZM155.77 61.2212C157.305 61.2212 158.393 60.9412 159.202 60.3532V57.6372C158.365 58.2252 157.361 58.5892 155.966 58.5892C153.594 58.5892 152.617 56.7412 152.617 53.8292C152.617 50.7772 153.817 49.2092 155.994 49.2092C157.277 49.2092 158.533 49.6572 159.202 50.0772V47.2492C158.505 46.8572 157.277 46.5772 155.631 46.5772C151.39 46.5772 149.185 49.6292 149.185 53.9132C149.185 58.6172 151.334 61.2212 155.77 61.2212ZM135.011 59.9892V57.2732C133.978 57.9732 132.248 58.5892 130.63 58.5892C128.202 58.5892 127.282 57.4412 127.142 55.0892H135.15V53.3252C135.15 48.4252 133.002 46.5772 129.681 46.5772C125.635 46.5772 123.71 49.6852 123.71 53.9412C123.71 58.8412 126.11 61.2212 130.351 61.2212C132.472 61.2212 134.034 60.6612 135.011 59.9892ZM104.597 46.8572V52.4292H100.16V46.8572H96.8398V60.9412H100.16V55.0612H104.597V60.9412H107.917V46.8572H104.597ZM122.901 58.3092H121.422V46.8572H111.74V48.0612C111.74 51.5052 111.517 55.9572 110.345 58.3092H109.312V64.1612H112.382V60.9412H119.832V64.1612H122.901V58.3092ZM145.614 60.9412H149.381L144.051 53.3532L148.739 46.8572H145.391L140.703 53.3532V46.8572H137.382V60.9412H140.703V54.0252L145.614 60.9412ZM129.626 49.2092C131.272 49.2092 131.774 50.5812 131.774 52.3452V52.6252H127.142C127.226 50.3852 128.035 49.2092 129.626 49.2092ZM118.102 58.3092H113.414C114.335 56.1812 114.586 52.3452 114.586 49.9092V49.4892H118.102V58.3092Z" fill="#515151"/>
<path d="M173.743 60.9412H176.533L180.495 46.2412V60.9412H183.676V41.4812H179.295L175.361 55.8172L171.482 41.4812H167.018V60.9412H169.78V46.2412L173.743 60.9412Z" fill="#515151"/>
<path d="M188.259 65.2812C191.357 65.2812 192.501 63.0692 193.449 60.1852L197.83 46.8572H194.621L191.524 57.4412L188.427 46.8572H184.939L189.766 61.5572C189.403 62.2292 188.873 62.6492 187.952 62.6492C187.339 62.6492 186.808 62.4532 186.446 62.0892V64.8052C186.446 64.8052 186.948 65.2812 188.259 65.2812Z" fill="#515151"/>
<path d="M202.665 58.5891C200.962 58.5891 199.288 57.9732 198.395 57.3012V60.0171C199.037 60.5491 200.656 61.2211 203.055 61.2211C206.599 61.2211 208.468 59.6252 208.468 56.7972C208.468 55.1452 207.436 54.0251 205.594 53.6331C207.324 53.0731 208.05 51.8412 208.05 50.2732C208.05 47.8932 206.18 46.5771 203.167 46.5771C200.99 46.5771 199.567 47.2491 198.758 47.7531V50.4691C199.651 49.8812 200.879 49.2092 202.692 49.2092C203.92 49.2092 204.701 49.7972 204.701 50.8332C204.701 51.9252 204.032 52.5131 202.665 52.5131H200.572V55.0331H202.665C204.367 55.0331 205.036 55.5371 205.036 56.7691C205.036 57.8891 204.227 58.5891 202.665 58.5891Z" fill="#515151"/>
<path d="M210.698 46.8572V60.9412H215.748C219.013 60.9412 221.329 59.2612 221.329 55.9572C221.329 52.8212 219.264 51.1692 215.804 51.1692H214.018V46.8572H210.698ZM222.556 46.8572V60.9412H225.877V46.8572H222.556ZM215.553 58.3092H214.018V53.8012H215.636C217.059 53.8012 217.897 54.4452 217.897 56.0692C217.897 57.6932 216.976 58.3092 215.553 58.3092Z" fill="#515151"/>
<path d="M236.886 60.9412H240.653L235.323 53.3532L240.011 46.8572H236.663L231.975 53.3532V46.8572H228.655V60.9412H231.975V54.0252L236.886 60.9412Z" fill="#515151"/>
<path d="M251.823 59.9892V57.2731C250.79 57.9731 249.06 58.5891 247.442 58.5891C245.014 58.5891 244.094 57.4411 243.954 55.0891H251.962V53.3251C251.962 48.4251 249.814 46.5771 246.493 46.5771C242.447 46.5771 240.522 49.6851 240.522 53.9411C240.522 58.8411 242.922 61.2211 247.163 61.2211C249.283 61.2211 250.846 60.6612 251.823 59.9892ZM246.437 49.2092C248.084 49.2092 248.586 50.5812 248.586 52.3451V52.6252H243.954C244.038 50.3851 244.847 49.2092 246.437 49.2092Z" fill="#515151"/>
</svg>
