<svg width="188" height="68" viewBox="0 0 188 68" fill="none" xmlns="http://www.w3.org/2000/svg">
<path d="M11.3094 1.60941C8.63624 1.8559 6.94718 2.46486 5.22874 3.78426C3.73061 4.92967 2.51155 6.80003 1.99749 8.78638C1.48343 10.7872 1.45405 12.3966 1.49811 35.1599C1.55686 55.9804 1.57155 57.5608 1.82124 58.5757C2.59968 61.838 4.3328 64.0708 7.10874 65.3902C7.75499 65.6947 8.70968 66.0572 9.22374 66.1877C10.0609 66.3907 17.4487 66.4196 93.4419 66.4052C148.05 66.4052 177.087 66.3472 177.777 66.2602C181.17 65.7817 183.917 63.9113 185.283 61.113C185.885 59.8806 186.179 58.7932 186.384 57.0533C186.575 55.3135 186.59 12.7591 186.384 10.9467C186.164 9.04737 185.988 8.33692 185.356 7.03201C184.416 5.10366 183.021 3.71176 181.067 2.72583C179.716 2.05888 178.629 1.7834 176.514 1.59492C174.487 1.42093 13.1894 1.43543 11.3094 1.60941ZM82.7934 8.00344C83.2194 8.46741 83.2928 8.77188 83.1166 9.27935C82.9403 9.77231 82.6025 10.0043 82.0444 10.0043C81.4862 10.0043 81.2365 9.85931 81.0015 9.40984C80.6931 8.84438 80.7225 8.6414 81.1631 8.13393C81.6331 7.56847 82.3381 7.52498 82.7934 8.00344ZM75.2 12.1791V16.2388H77.4766H79.7531V17.1813V18.1237H76.4484H73.1437V13.1216V8.11943H74.1719H75.2V12.1791ZM39.3331 8.5689C51.8322 9.9173 61.5553 19.8781 62.3925 32.1732C63.3325 45.8167 53.5653 57.6043 39.8472 59.3732C28.435 60.8521 17.2431 54.5305 12.7341 44.0768C10.575 39.0602 10.0903 33.6376 11.2947 28.2005C11.6472 26.6346 12.3962 24.6337 13.3656 22.6909C18.1244 13.0636 28.5525 7.39449 39.3331 8.5689ZM94 10.0768V11.1642H94.7344H95.4687V12.0341V12.9041H94.7344H94V14.5425C94 15.6299 94.0587 16.2388 94.1762 16.3548C94.2791 16.4563 94.6022 16.5288 94.9106 16.5288H95.4687V17.3118C95.4687 18.1962 95.3953 18.2687 94.3231 18.2687C93.4419 18.2687 92.7075 17.8772 92.355 17.2393C92.1347 16.8333 92.0906 16.4128 92.0906 14.8324V12.9041H91.4297H90.7687V12.0341C90.7687 11.2222 90.7834 11.1642 91.1212 11.1642C91.3122 11.1642 91.6353 11.0337 91.8556 10.8597C92.1787 10.5988 92.2375 10.4538 92.2375 9.77231V8.98937H93.1187H94V10.0768ZM88.7125 11.3382C89.3441 11.6572 90.0344 12.4401 90.0344 12.8316C90.0344 12.9331 89.6966 13.0926 89.3 13.1941C88.5656 13.368 88.5656 13.368 88.1397 12.9186C87.6697 12.4256 87.185 12.3531 86.6856 12.7011C86.01 13.1651 86.4359 13.6145 87.8312 13.9045C89.3441 14.209 90.0784 14.9049 90.0784 16.0069C90.0784 16.8623 89.6084 17.5872 88.7712 17.9932C87.9047 18.3992 86.3772 18.3267 85.5694 17.8482C85.0406 17.5147 84.4531 16.7318 84.4531 16.3403C84.4531 16.0793 85.9512 15.6879 86.0394 15.9344C86.2891 16.6738 87.4641 17.0653 87.9781 16.6013C88.5803 16.0648 88.3012 15.7749 86.8031 15.3544C85.5987 15.0354 85.2609 14.8324 84.8791 14.2525C83.939 12.8606 85.3344 11.0192 87.3172 11.0192C87.8019 11.0192 88.3012 11.1352 88.7125 11.3382ZM101.623 11.3817C102.695 11.9182 103.4 13.1651 103.4 14.528V15.0789H100.815H98.2447L98.3328 15.3979C98.5825 16.2098 99.6253 16.7898 100.492 16.6013C100.756 16.5433 101.153 16.2968 101.373 16.0648C101.784 15.6299 101.784 15.6299 102.519 15.8184C102.915 15.9199 103.253 16.0793 103.253 16.1808C103.253 16.5288 102.298 17.5872 101.711 17.8917C101.373 18.0657 100.742 18.2107 100.227 18.2397C96.8053 18.4572 95.0575 14.296 97.5691 11.9182C97.8481 11.6427 98.3328 11.3382 98.6412 11.2222C99.3756 10.9612 100.962 11.0337 101.623 11.3817ZM110.435 11.4542C111.331 12.0776 111.478 12.6431 111.478 15.5429V18.1237H110.523H109.569V15.9489C109.569 13.1651 109.392 12.7591 108.247 12.7591C108.012 12.7591 107.645 12.9186 107.41 13.1071L106.998 13.455L106.954 15.7894L106.91 18.1237H105.956H105.016V14.644V11.1642H105.97C106.91 11.1642 106.925 11.1642 106.925 11.5557V11.9327L107.263 11.6282C107.762 11.1642 108.247 11.0192 109.143 11.0627C109.716 11.0917 110.097 11.2077 110.435 11.4542ZM121.847 11.4252C124.462 12.7446 124.462 16.4998 121.833 17.8772C120.996 18.3267 119.145 18.3267 118.293 17.8772C115.356 16.3403 115.782 12.1791 118.969 11.1497C119.6 10.9467 121.201 11.0917 121.847 11.4252ZM130.704 11.4542C131.6 12.0776 131.747 12.6431 131.747 15.5429V18.1237H130.792H129.837V15.9489C129.837 13.1651 129.661 12.7591 128.516 12.7591C128.281 12.7591 127.913 12.9186 127.678 13.1071L127.267 13.455L127.223 15.7894L127.179 18.1237H126.224H125.284V14.644V11.1642H126.239C127.179 11.1642 127.194 11.1642 127.194 11.5557V11.9327L127.532 11.6282C128.031 11.1642 128.516 11.0192 129.412 11.0627C129.984 11.0917 130.366 11.2077 130.704 11.4542ZM82.9844 14.644V18.1237H82.0297H81.075V14.644V11.1642H82.0297H82.9844V14.644ZM145.744 22.7779C146.434 22.9663 147.301 23.6913 147.551 24.3147C148.065 25.5037 147.58 27.0115 146.493 27.635C145.524 28.2005 144.833 28.244 143.908 27.7945C143.438 27.5625 142.983 27.2 142.777 26.8956C142.366 26.2866 142.219 25.1847 142.454 24.4742C142.674 23.8363 143.453 23.0823 144.172 22.8359C144.877 22.5894 145.039 22.5749 145.744 22.7779ZM158.037 23.7783C158.64 23.8653 159.359 23.9958 159.609 24.0828L160.094 24.2422V26.0546V27.867L159.697 27.78C158.17 27.432 157.494 27.374 156.907 27.5335C156.084 27.751 155.687 28.3309 155.585 29.4329L155.497 30.3028H158.963C162.106 30.3028 162.414 30.3318 162.517 30.5493C165.293 37.6973 166.85 41.7715 166.85 41.8875C166.85 41.9744 166.909 42.0469 166.982 42.0469C167.129 42.0469 167.188 41.8875 169.641 34.9715L171.3 30.3028H173.474C174.664 30.3028 175.677 30.3463 175.721 30.4188C175.795 30.5493 168.833 48.3395 168.289 49.3689C167.379 51.1088 166.38 52.0367 164.97 52.4282C164.059 52.6892 162.4 52.7182 161.342 52.4862C160.49 52.2977 158.919 51.6307 158.919 51.4567C158.919 51.3988 159.242 50.6448 159.638 49.8039L160.373 48.2815L161.078 48.586C162.649 49.2529 163.766 49.0354 164.529 47.9045L164.926 47.3246L162.121 40.6985L159.315 34.0725H157.509H155.687L155.658 40.771L155.614 47.484H153.484H151.355L151.311 40.7855L151.281 34.087L150.209 34.0435L149.152 34V32.1877V30.3753L150.194 30.3318L151.237 30.2883L151.311 28.8819C151.502 25.4312 153.102 23.8798 156.716 23.6623C156.833 23.6478 157.435 23.7058 158.037 23.7783ZM82.7934 24.6627C84.3209 24.8657 85.6575 25.2572 86.8912 25.8806C87.9928 26.4316 89.3 27.3305 89.3 27.5335C89.3 27.7075 87.1115 30.7378 86.9794 30.7378C86.9206 30.7378 86.5828 30.5348 86.2156 30.2883C84.409 29.0849 82.7641 28.5194 81.0015 28.5049C78.5928 28.4759 77.1387 29.6649 77.4619 31.3902C77.6969 32.5936 78.6662 33.1156 82.4703 34.145C85.4666 34.957 87.1262 35.6964 88.2425 36.7403C89.2119 37.6393 89.6819 38.5092 89.8875 39.8141C90.3722 42.8009 89.0209 45.4977 86.3478 46.8316C84.9525 47.542 83.8656 47.7595 81.6625 47.7595C79.2244 47.7595 77.7116 47.426 75.5672 46.4111C74.1278 45.7297 72.3065 44.5118 72.1597 44.1348C72.1009 43.9608 74.3334 41.1625 74.6419 41.061C74.7153 41.032 75.1119 41.264 75.5378 41.583C77.7116 43.2214 79.3125 43.8303 81.5891 43.8448C83.3662 43.8593 84.1887 43.5983 84.9525 42.7574C85.4666 42.2064 85.5694 41.873 85.4812 40.887C85.3931 39.7271 84.2328 39.0312 81.0015 38.2047C79.8853 37.9147 78.5634 37.5523 78.0934 37.3928C74.6125 36.2329 72.9969 34.29 72.9969 31.2452C73.0116 26.7216 77.1828 23.9088 82.7934 24.6627ZM136.359 25.9096C136.417 26.0401 136.447 27.0695 136.432 28.186L136.417 30.2303L138.665 30.3028L140.927 30.3753V32.1877V34L138.65 34.0725C137.402 34.116 136.388 34.1885 136.417 34.2465C136.432 34.319 136.447 36.2764 136.447 38.6252V42.8879L136.814 43.3373C137.328 43.9318 138.224 44.0623 139.443 43.7143C139.928 43.5838 140.457 43.4243 140.603 43.3953C140.824 43.3228 140.853 43.4678 140.853 45.0627C140.853 46.2661 140.794 46.8461 140.677 46.9476C140.574 47.0346 140.06 47.2376 139.531 47.426C138.18 47.89 135.992 47.8755 134.772 47.4115C133.7 47.0056 132.775 46.1211 132.393 45.1497C132.158 44.5118 132.114 43.8883 132.07 39.2631L132.026 34.087L130.968 34.0435L129.911 34V32.1877V30.3753L130.983 30.3318L132.041 30.2883V28.07C132.041 26.8521 132.085 25.8081 132.143 25.7646C132.187 25.7066 133.142 25.6631 134.258 25.6631C136.021 25.6631 136.285 25.6921 136.359 25.9096ZM103.782 30.3173C105.882 30.9553 107.63 32.4341 108.599 34.3915C110.083 37.3783 109.848 41.6265 108.071 44.3378C105.559 48.151 99.9337 49.0209 96.7172 46.0921C96.3794 45.7877 96.0562 45.5267 96.0122 45.5267C95.9534 45.5267 95.8947 47.1071 95.88 49.0354L95.8359 52.5587H93.7797H91.7234L91.6794 41.4235L91.65 30.3028H93.7797H95.9094V31.3902C95.9094 31.9847 95.9534 32.4776 95.9975 32.4776C96.0415 32.4776 96.2325 32.2892 96.4381 32.0572C96.9669 31.4337 98.3328 30.5928 99.2728 30.2883C100.462 29.9113 102.489 29.9258 103.782 30.3173ZM122.567 30.2303C124.242 30.6508 125.549 31.4047 126.827 32.6806C128.648 34.5075 129.397 36.2764 129.397 38.8137C129.397 40.5536 129.206 41.4235 128.486 42.9024C127.678 44.5843 126.268 45.9762 124.535 46.8026C122.92 47.6 121.847 47.8465 120.144 47.8465C118.44 47.8465 117.382 47.6 115.767 46.8171C112.007 45.0047 110.053 40.4521 111.272 36.3924C112.168 33.4056 114.651 31.0712 117.794 30.2448C118.881 29.9548 121.466 29.9548 122.567 30.2303ZM147.139 38.8862L147.095 47.484L145.01 47.5275C143.849 47.542 142.909 47.513 142.909 47.455C142.909 47.1216 142.909 30.5058 142.909 30.4043C142.909 30.3463 143.864 30.3028 145.039 30.3028H147.169L147.139 38.8862Z" fill="#515151"/>
<path d="M29.375 21.995C24.2932 22.4589 20.7682 23.1404 19.6666 23.8508C18.7119 24.4598 18.33 25.9242 18.8588 26.9391C19.1819 27.5626 20.0044 28.1425 20.6653 28.2295C21.0032 28.273 21.7816 28.157 22.6922 27.925C26.2319 27.0261 29.0372 26.7651 33.9135 26.8666C40.7138 26.9971 45.7075 28.07 50.6132 30.4623C52.7722 31.5063 53.2422 31.6223 54.0941 31.2598C54.7404 30.9988 55.4894 30.1289 55.6069 29.4909C55.7244 28.8385 55.4747 27.983 54.99 27.4176C54.5054 26.8376 50.995 25.1412 48.7185 24.3728C43.9157 22.7489 38.1141 21.8645 32.5475 21.9225C31.0788 21.9225 29.6541 21.966 29.375 21.995Z" fill="#515151"/>
<path d="M28.3028 30.8828C24.8512 31.2743 21.664 32.0717 20.9884 32.7097C19.6812 33.9421 20.5478 36.1024 22.3544 36.1024C22.6334 36.1024 23.4853 35.9429 24.2784 35.74C26.8781 35.0875 28.7581 34.8845 32.0922 34.8845C38.0259 34.87 42.8728 35.9574 47.5728 38.3643C49.585 39.3937 50.2019 39.5097 51.039 39.0022C51.5678 38.6832 51.9937 37.9438 51.9937 37.3348C51.9937 36.2039 51.1859 35.508 48.2484 34.1306C45.2962 32.7387 41.9475 31.7527 38.2315 31.1583C36.1019 30.8248 30.315 30.6653 28.3028 30.8828Z" fill="#515151"/>
<path d="M30.1975 39.1617C27.2159 39.3356 22.8097 40.0896 22.1047 40.5391C21.1059 41.177 21.3116 42.8734 22.4572 43.3374C22.8391 43.5113 23.1916 43.4823 24.9247 43.1489C28.3469 42.5254 29.3309 42.4239 32.6063 42.4384C35.1619 42.4384 36.0872 42.4964 37.4531 42.7429C40.4934 43.2939 43.3722 44.2798 45.5606 45.5267C46.8531 46.2661 47.5581 46.3096 48.175 45.6862C48.88 45.0047 48.9241 44.2218 48.3366 43.4678C47.9694 43.0184 45.0319 41.5105 43.1813 40.8435C39.4506 39.4806 34.8241 38.8862 30.1975 39.1617Z" fill="#515151"/>
<path d="M119.321 12.8896C118.161 13.3825 117.926 15.1949 118.91 16.1083C119.453 16.6158 120.687 16.6013 121.231 16.1083C122.053 15.3399 122.068 13.948 121.26 13.2086C120.863 12.8316 119.835 12.6721 119.321 12.8896Z" fill="#515151"/>
<path d="M98.8909 34.0726C97.8922 34.464 96.864 35.4645 96.3793 36.5084C95.8359 37.6973 95.7478 39.4807 96.2031 40.8001C97.1725 43.6854 100.551 44.9468 103.018 43.3229C106.014 41.3655 105.794 35.9864 102.666 34.3046C101.593 33.7246 100.022 33.6376 98.8909 34.0726Z" fill="#515151"/>
<path d="M118.719 33.9855C117.368 34.4205 116.413 35.2759 115.782 36.6098C115.414 37.3783 115.37 37.6393 115.37 38.9297C115.37 40.1911 115.414 40.4811 115.767 41.206C116.237 42.2064 117.177 43.1634 118.161 43.6418C118.778 43.9463 119.101 44.0043 120.217 43.9898C121.304 43.9898 121.671 43.9318 122.273 43.6418C126.019 41.844 126.004 36.0879 122.259 34.2755C121.275 33.797 119.688 33.6666 118.719 33.9855Z" fill="#515151"/>
</svg>
