<svg width="234" height="68" viewBox="0 0 234 68" fill="none" xmlns="http://www.w3.org/2000/svg">
<path d="M216.477 0H15.8585C15.2594 0 14.6604 0 14.0447 0C13.5288 0 13.0296 0.0165854 12.5137 0.0165854C11.3988 0.0497561 10.2839 0.116098 9.18561 0.315122C8.07069 0.514146 7.03897 0.845854 6.02389 1.36C5.02546 1.85756 4.11023 2.52098 3.32812 3.31707C2.52937 4.09659 1.86375 5.00878 1.36453 6.0039C0.84867 7.01561 0.515858 8.0439 0.316171 9.15512C0.116484 10.2498 0.0499218 11.361 0.0166406 12.4722C0.0166406 12.9863 0 13.5005 0 13.998C0 14.5951 0 15.2088 0 15.8059V50.519C0 51.1327 0 51.7298 0 52.3268C0 52.841 0.0166406 53.3385 0.0332812 53.8527C0.0665624 54.9639 0.133125 56.0751 0.332812 57.1698C0.532499 58.281 0.84867 59.3259 1.38117 60.321C1.88039 61.3161 2.54601 62.2117 3.34476 62.9912C4.12687 63.7873 5.0421 64.4507 6.04053 64.9483C7.05561 65.4624 8.08733 65.7941 9.20225 65.9932C10.3005 66.1922 11.4321 66.2585 12.5304 66.2917C13.0296 66.3249 13.5288 66.3415 14.0447 66.3415C14.6604 66.3415 15.2594 66.3415 15.8585 66.3415H216.477C217.077 66.3415 217.676 66.3415 218.275 66.3415C218.774 66.3415 219.306 66.3415 219.806 66.3249C220.92 66.2917 222.035 66.2254 223.134 66.0263C224.249 65.8273 225.28 65.4956 226.312 64.9815C227.31 64.4839 228.209 63.8205 229.008 63.0244C229.807 62.2449 230.456 61.3327 230.971 60.3541C231.487 59.3424 231.82 58.3141 232.003 57.2029C232.203 56.1083 232.269 54.9971 232.319 53.8859C232.319 53.3717 232.319 52.8741 232.319 52.36C232.336 51.7629 232.336 51.1659 232.336 50.5522V15.8224C232.336 15.2088 232.336 14.6117 232.319 14.0146C232.319 13.5005 232.319 13.0029 232.319 12.4888C232.286 11.3776 232.219 10.2663 232.003 9.17171C231.82 8.06049 231.487 7.0322 230.971 6.02049C230.456 5.02537 229.79 4.11317 229.008 3.33366C228.226 2.55415 227.31 1.89073 226.312 1.37659C225.28 0.862439 224.249 0.530732 223.134 0.331707C222.035 0.132683 220.92 0.0663415 219.806 0.0331707C219.306 0.0331707 218.774 0.0165854 218.275 0.0165854C217.692 0 217.077 0 216.477 0Z" fill="#A6A6A6"/>
<path d="M14.0447 64.8819C13.5455 64.8819 13.0462 64.8819 12.547 64.8653C11.6152 64.8322 10.5169 64.7824 9.43524 64.6C8.42016 64.4175 7.52157 64.119 6.6729 63.6878C5.80759 63.2565 5.02548 62.6761 4.34322 61.9961C3.66095 61.3161 3.09517 60.5531 2.64588 59.6741C2.21322 58.8448 1.91369 57.9326 1.74728 56.9209C1.5476 55.8097 1.49768 54.6653 1.46439 53.8029C1.44775 53.4546 1.44775 52.2936 1.44775 52.2936V13.998C1.44775 13.998 1.46439 12.8536 1.46439 12.5219C1.49768 11.6595 1.5476 10.5151 1.74728 9.42045C1.93033 8.39216 2.22986 7.49655 2.66252 6.66728C3.11181 5.80484 3.67759 5.02533 4.35986 4.34533C5.04212 3.64874 5.82423 3.08484 6.6729 2.65362C7.52157 2.2224 8.4368 1.92386 9.4186 1.75801C10.5502 1.5424 11.6817 1.49264 12.547 1.47606L14.0447 1.45947H218.275L219.789 1.47606C220.638 1.49264 221.786 1.5424 222.884 1.74142C223.883 1.92386 224.798 2.20581 225.663 2.65362C226.512 3.08484 227.294 3.66533 227.976 4.34533C228.658 5.02533 229.224 5.80484 229.673 6.66728C230.106 7.51313 230.389 8.40874 230.572 9.40386C230.772 10.4487 230.822 11.5268 230.855 12.5385C230.855 13.0029 230.855 13.517 230.855 14.0146C230.872 14.6448 230.872 15.2253 230.872 15.8224V50.5356C230.872 51.1326 230.872 51.7297 230.855 52.3268C230.855 52.8741 230.855 53.3551 230.855 53.8692C230.822 54.8478 230.755 55.9258 230.572 56.9375C230.406 57.9492 230.106 58.8614 229.673 59.7073C229.224 60.5697 228.658 61.3492 227.976 62.0126C227.294 62.7092 226.512 63.2731 225.646 63.7044C224.781 64.1356 223.899 64.4341 222.867 64.6165C221.802 64.8156 220.704 64.8653 219.756 64.8819C219.273 64.8985 218.757 64.8985 218.258 64.8985H216.461L14.0447 64.8819Z" fill="#515151"/>
<path d="M70.0902 24.4635H63.9166V14.5952H65.4475V23.0703H70.0902V24.4635Z" fill="white"/>
<path d="M71.9041 14.8108C71.9041 14.2966 72.3034 13.9152 72.8526 13.9152C73.4017 13.9152 73.8011 14.3132 73.8011 14.8108C73.8011 15.3249 73.4017 15.7064 72.8526 15.7064C72.3034 15.7064 71.9041 15.3083 71.9041 14.8108ZM72.1204 17.0166H73.5848V24.4635H72.1204V17.0166Z" fill="white"/>
<path d="M78.7101 16.8673C80.3908 16.8673 81.4891 17.6468 81.6388 18.9571H80.2244C80.0912 18.4097 79.5588 18.0615 78.7101 18.0615C77.8781 18.0615 77.2624 18.4595 77.2624 19.04C77.2624 19.4878 77.6451 19.7697 78.4438 19.9522L79.6919 20.2341C81.1063 20.5658 81.7719 21.1629 81.7719 22.2741C81.7719 23.6839 80.4573 24.6127 78.6768 24.6127C76.8963 24.6127 75.7314 23.8166 75.6149 22.4897H77.0959C77.279 23.0702 77.8281 23.4185 78.7267 23.4185C79.642 23.4185 80.3076 23.0039 80.3076 22.4068C80.3076 21.959 79.9581 21.6771 79.2093 21.4946L77.9113 21.1961C76.4969 20.8644 75.8313 20.2176 75.8313 19.1063C75.8146 17.7961 77.0294 16.8673 78.7101 16.8673Z" fill="white"/>
<path d="M85.7324 15.1591V17.0498H87.3465V18.2937H85.7324V22.1249C85.7324 22.9044 86.0486 23.2527 86.7974 23.2527C87.0304 23.2527 87.1469 23.2361 87.3632 23.2195V24.4469C87.1302 24.4966 86.8473 24.5298 86.5644 24.5298C84.917 24.5298 84.268 23.9493 84.268 22.523V18.3103H83.0865V17.0664H84.268V15.1591H85.7324Z" fill="white"/>
<path d="M95.5503 22.4566C95.2175 23.8 94.0194 24.6127 92.3054 24.6127C90.1588 24.6127 88.8442 23.1532 88.8442 20.7649C88.8442 18.3766 90.1921 16.8673 92.2888 16.8673C94.3689 16.8673 95.6335 18.2771 95.6335 20.6322V21.1463H90.3585V21.2293C90.4084 22.5395 91.1739 23.3688 92.3553 23.3688C93.2539 23.3688 93.853 23.0537 94.1359 22.4566H95.5503ZM90.3585 20.0517H94.1359C94.1026 18.8741 93.3871 18.1278 92.2888 18.1278C91.2071 18.1278 90.4417 18.8907 90.3585 20.0517Z" fill="white"/>
<path d="M97.6304 17.0166H99.0448V18.1941H99.1613C99.5274 17.3649 100.26 16.8673 101.391 16.8673C103.055 16.8673 103.987 17.8624 103.987 19.6371V24.4634H102.506V20.0019C102.506 18.8078 101.99 18.2107 100.892 18.2107C99.7937 18.2107 99.1114 18.9405 99.1114 20.1015V24.4634H97.6304V17.0166Z" fill="white"/>
<path d="M109.978 20.7317C109.978 18.3268 111.326 16.8673 113.506 16.8673C115.685 16.8673 117.033 18.3268 117.033 20.7317C117.033 23.1532 115.685 24.6127 113.506 24.6127C111.326 24.6127 109.978 23.1532 109.978 20.7317ZM115.519 20.7317C115.519 19.1229 114.787 18.1776 113.522 18.1776C112.241 18.1776 111.509 19.1229 111.509 20.7317C111.509 22.3571 112.224 23.3024 113.522 23.3024C114.787 23.3024 115.519 22.3571 115.519 20.7317Z" fill="white"/>
<path d="M119.03 17.0166H120.445V18.1941H120.561C120.927 17.3649 121.659 16.8673 122.791 16.8673C124.455 16.8673 125.387 17.8624 125.387 19.6371V24.4634H123.906V20.0019C123.906 18.8078 123.39 18.2107 122.292 18.2107C121.193 18.2107 120.511 18.9405 120.511 20.1015V24.4634H119.03V17.0166Z" fill="white"/>
<path d="M76.6133 46.1737H68.7257L66.8286 51.7463H63.4839L70.9555 31.1307H74.4168L81.8884 51.7463H78.4937L76.6133 46.1737ZM69.5411 43.6029H75.7979L72.7194 34.5639H72.6362L69.5411 43.6029Z" fill="white"/>
<path d="M98.0131 44.2332C98.0131 48.9103 95.5004 51.8956 91.7229 51.8956C89.5763 51.8956 87.8623 50.9337 86.9804 49.2751H86.9138V56.722H83.8187V36.72H86.814V39.2244H86.8639C87.7292 37.6156 89.5597 36.5707 91.673 36.5707C95.4837 36.5542 98.0131 39.5727 98.0131 44.2332ZM94.8347 44.2332C94.8347 41.1981 93.2539 39.1912 90.8576 39.1912C88.4947 39.1912 86.8972 41.2312 86.8972 44.2332C86.8972 47.2683 88.4947 49.2917 90.8576 49.2917C93.2539 49.2917 94.8347 47.3015 94.8347 44.2332Z" fill="white"/>
<path d="M114.587 44.2332C114.587 48.9103 112.074 51.8956 108.297 51.8956C106.15 51.8956 104.436 50.9337 103.554 49.2751H103.488V56.722H100.393V36.72H103.388V39.2244H103.438C104.303 37.6156 106.134 36.5707 108.247 36.5707C112.074 36.5542 114.587 39.5727 114.587 44.2332ZM111.409 44.2332C111.409 41.1981 109.828 39.1912 107.432 39.1912C105.069 39.1912 103.471 41.2312 103.471 44.2332C103.471 47.2683 105.069 49.2917 107.432 49.2917C109.828 49.2917 111.409 47.3015 111.409 44.2332Z" fill="white"/>
<path d="M117.083 31.1307H120.178V51.7463H117.083V31.1307Z" fill="white"/>
<path d="M136.286 47.3347C135.87 50.0712 133.208 51.9288 129.797 51.9288C125.42 51.9288 122.691 48.9932 122.691 44.2995C122.691 39.5893 125.437 36.521 129.664 36.521C133.84 36.521 136.453 39.3737 136.453 43.9347V44.9961H125.803V45.1786C125.803 47.7493 127.417 49.441 129.863 49.441C131.577 49.441 132.925 48.6283 133.341 47.3347H136.286ZM125.82 42.84H133.358C133.291 40.5347 131.81 39.0254 129.664 39.0254C127.534 39.0254 125.986 40.5678 125.82 42.84Z" fill="white"/>
<path d="M163.161 51.7463V36.5707H163.061L156.821 51.5805H154.441L148.185 36.5707H148.101V51.7463H145.173V31.1307H148.883L155.573 47.401H155.689L162.362 31.1307H166.09V51.7463H163.161Z" fill="white"/>
<path d="M182.581 51.7463H179.619V49.159H179.552C178.687 50.9668 177.189 51.9122 174.876 51.9122C171.598 51.9122 169.584 49.8058 169.584 46.3561V36.72H172.679V45.759C172.679 48.0478 173.761 49.2585 175.908 49.2585C178.138 49.2585 179.485 47.7161 179.485 45.3775V36.72H182.581V51.7463Z" fill="white"/>
<path d="M191.383 36.5541C194.728 36.5541 197.124 38.3951 197.191 41.0487H194.279C194.146 39.7219 193.014 38.9092 191.3 38.9092C189.62 38.9092 188.505 39.6721 188.505 40.8497C188.505 41.7453 189.253 42.3424 190.818 42.7404L193.364 43.3209C196.409 44.0507 197.541 45.1619 197.541 47.3677C197.541 50.0877 194.961 51.9453 191.284 51.9453C187.723 51.9453 185.343 50.1375 185.11 47.3843H188.172C188.388 48.8272 189.553 49.6068 191.433 49.6068C193.281 49.6068 194.445 48.8438 194.445 47.6497C194.445 46.7209 193.88 46.2233 192.299 45.8253L189.603 45.1619C186.874 44.4985 185.509 43.1219 185.509 41.0321C185.476 38.3619 187.872 36.5541 191.383 36.5541Z" fill="white"/>
<path d="M199.953 32.7561C199.953 31.7775 200.752 30.9814 201.751 30.9814C202.749 30.9814 203.564 31.761 203.564 32.7561C203.564 33.7346 202.766 34.5141 201.751 34.5141C200.752 34.5141 199.953 33.7346 199.953 32.7561ZM200.186 36.72H203.281V51.7463H200.186V36.72Z" fill="white"/>
<path d="M216.611 41.8947C216.344 40.3025 215.096 39.1249 213.05 39.1249C210.67 39.1249 209.089 41.1152 209.089 44.2332C209.089 47.4342 210.687 49.3581 213.066 49.3581C214.98 49.3581 216.245 48.3961 216.594 46.6547H219.573C219.223 49.8059 216.694 51.9288 213.033 51.9288C208.74 51.9288 205.927 48.9932 205.927 44.2332C205.927 39.5561 208.74 36.5376 213 36.5376C216.877 36.5376 219.273 38.9756 219.539 41.8947H216.611Z" fill="white"/>
<path fill-rule="evenodd" clip-rule="evenodd" d="M54.4314 25.3591C54.4314 24.8615 54.4314 24.364 54.4314 23.8664C54.4314 23.4518 54.4314 23.0205 54.4147 22.6059C54.3981 21.6937 54.3315 20.7649 54.1651 19.8693C53.9987 18.9571 53.7325 18.0947 53.2998 17.2654C52.8838 16.4527 52.3347 15.6898 51.6857 15.043C51.0367 14.3962 50.2879 13.8488 49.4558 13.4342C48.6238 13.003 47.7585 12.7376 46.8433 12.5718C45.928 12.4059 45.0128 12.3562 44.0976 12.323C43.6815 12.3064 43.2489 12.3064 42.8329 12.3064C42.3337 12.3064 41.8344 12.3064 41.3352 12.3064H25.6598C25.1606 12.3064 24.6613 12.3064 24.1621 12.3064C23.7461 12.3064 23.3135 12.3064 22.8974 12.323C21.9822 12.3396 21.0503 12.4059 20.1517 12.5718C19.2365 12.7376 18.3712 13.003 17.5392 13.4342C16.7071 13.8488 15.9583 14.3796 15.3093 15.043C14.6437 15.6898 14.1112 16.4362 13.6786 17.2488C13.2459 18.0781 12.9797 18.9405 12.8132 19.8527C12.6468 20.7649 12.5969 21.6771 12.5636 22.5893C12.547 23.004 12.547 23.4352 12.547 23.8498C12.547 24.3474 12.547 24.8449 12.547 25.3425V40.9659C12.547 41.4635 12.547 41.961 12.547 42.4586C12.547 42.8732 12.547 43.3044 12.5636 43.7191C12.5803 44.6313 12.6468 45.5601 12.8132 46.4557C12.9797 47.3679 13.2459 48.2303 13.6786 49.0596C14.0946 49.8723 14.6437 50.6352 15.2927 51.282C15.9417 51.9288 16.6905 52.4762 17.5225 52.8908C18.3546 53.322 19.2199 53.5874 20.1351 53.7532C21.0503 53.9191 21.9656 53.9688 22.8808 54.002C23.2968 54.0186 23.7295 54.0186 24.1455 54.0186C24.6447 54.0186 25.1439 54.0186 25.6431 54.0186H41.3186C41.8178 54.0186 42.317 54.0186 42.8162 54.0186C43.2322 54.0186 43.6649 54.0186 44.0809 54.002C44.9962 53.9854 45.928 53.9191 46.8266 53.7532C47.7418 53.5874 48.6072 53.322 49.4392 52.8908C50.2546 52.4762 51.02 51.9288 51.669 51.282C52.318 50.6352 52.8672 49.8888 53.2832 49.0596C53.7158 48.2303 53.9821 47.3679 54.1485 46.4557C54.3149 45.5435 54.3648 44.6313 54.3981 43.7191C54.4147 43.3044 54.4147 42.8732 54.4147 42.4586C54.4147 41.961 54.4147 41.4635 54.4147 40.9659V25.3591H54.4314Z" fill="white"/>
<path fill-rule="evenodd" clip-rule="evenodd" d="M42.1673 18.6752C42.0674 18.6917 41.1688 18.841 41.0523 18.8576L28.6052 21.362C28.2724 21.4283 28.0227 21.5444 27.8231 21.7103C27.5901 21.9093 27.457 22.1913 27.407 22.523C27.3904 22.5893 27.3738 22.7386 27.3738 22.9376C27.3738 22.9376 27.3738 35.6088 27.3738 38.4615C27.3738 38.8264 27.3405 39.1747 27.0909 39.4732C26.8413 39.7717 26.5417 39.8713 26.1756 39.9376L25.3603 40.1034C24.3285 40.3025 23.6629 40.4517 23.0639 40.6839C22.4814 40.9161 22.0488 41.1981 21.6993 41.5464C21.0171 42.2595 20.7342 43.2381 20.834 44.1337C20.9172 44.9132 21.2667 45.643 21.8657 46.2069C22.2651 46.5717 22.781 46.8537 23.38 46.9864C23.9957 47.1191 24.6613 47.0693 25.6265 46.8703C26.1424 46.7708 26.6249 46.6049 27.0742 46.3395C27.5235 46.0742 27.9229 45.7093 28.2224 45.2781C28.522 44.8469 28.7217 44.3659 28.8381 43.8517C28.9546 43.321 28.9713 42.84 28.9713 42.3093V28.8586C28.9713 28.1288 29.1709 27.9464 29.7534 27.8137C29.7534 27.8137 40.1038 25.7405 40.5864 25.641C41.252 25.5083 41.5848 25.7073 41.5848 26.4039V35.5922C41.5848 35.9571 41.5848 36.322 41.3352 36.6205C41.0856 36.9191 40.7861 37.0186 40.42 37.0849C40.1537 37.1347 39.8708 37.201 39.6046 37.2508C38.5729 37.4498 37.9073 37.5991 37.3082 37.8312C36.7258 38.0634 36.2931 38.3454 35.9437 38.6937C35.2614 39.4069 34.9619 40.3854 35.0451 41.281C35.1283 42.0605 35.4944 42.7903 36.1101 43.3542C36.5095 43.7191 37.0253 44.001 37.6244 44.1171C38.2401 44.2498 38.9057 44.2 39.8708 44.001C40.3867 43.9015 40.8693 43.7522 41.3186 43.4703C41.7679 43.2049 42.1673 42.84 42.4668 42.4088C42.7663 41.9776 42.966 41.4966 43.0825 40.9825C43.199 40.4517 43.199 39.9708 43.199 39.44V19.7698C43.2156 19.0566 42.8329 18.6254 42.1673 18.6752Z" fill="#515151"/>
</svg>
