<svg width="230" height="53" viewBox="0 0 230 53" fill="none" xmlns="http://www.w3.org/2000/svg">
<g clip-path="url(#clip0_3_78)">
<path d="M65.3158 14.6233C64.2861 14.6233 63.3567 14.4045 62.5275 13.9668C61.7117 13.5164 61.0764 12.8986 60.6217 12.1136C60.167 11.3284 59.9396 10.4404 59.9396 9.44937C59.9396 8.4455 60.167 7.55101 60.6217 6.76593C61.0764 5.98084 61.7117 5.36951 62.5275 4.93191C63.3432 4.48145 64.2727 4.25623 65.3158 4.25623C66.4259 4.25623 67.4155 4.51363 68.2848 5.02845C69.1675 5.54325 69.796 6.28329 70.1705 7.24856L68.3249 7.53814C68.0842 7.07481 67.703 6.70158 67.1815 6.41843C66.6733 6.13528 66.0915 5.99371 65.4362 5.99371C64.4198 5.99371 63.5906 6.31547 62.9487 6.95898C62.3201 7.60249 62.0059 8.43263 62.0059 9.44937C62.0059 10.4661 62.3201 11.2963 62.9487 11.9397C63.5906 12.5704 64.4198 12.8857 65.4362 12.8857C66.1183 12.8857 66.72 12.7378 67.2417 12.4417C67.7766 12.1457 68.1644 11.7532 68.4052 11.264L70.2506 11.5537C69.8763 12.5318 69.2343 13.2911 68.3249 13.8317C67.4289 14.3593 66.4259 14.6233 65.3158 14.6233Z" fill="#515151"/>
<path d="M73.1155 4.44922H80.3974V14.4301H78.4314V6.18671H74.9409L74.64 10.8972C74.5731 12.0684 74.2589 12.9694 73.6971 13.6C73.1355 14.2177 72.3732 14.5266 71.4103 14.5266C71.1562 14.5266 70.8754 14.5074 70.5677 14.4687L70.3672 12.654C70.541 12.6669 70.8018 12.6733 71.1495 12.6733C71.6844 12.6733 72.0656 12.5446 72.2929 12.2872C72.5203 12.0298 72.654 11.5794 72.6941 10.9358L73.1155 4.44922Z" fill="#515151"/>
<path d="M90.4916 4.44922H92.5177L88.1846 15.936C87.8637 16.7983 87.4424 17.4225 86.9208 17.8085C86.3993 18.1947 85.7039 18.3877 84.8346 18.3877H83.2899L83.1094 16.6502H84.955C85.3428 16.6502 85.6437 16.5666 85.8577 16.3992C86.0716 16.2448 86.2522 15.9681 86.3993 15.5691L86.62 14.99L82.006 4.44922H84.1124L87.4023 12.1521H87.6831L90.4916 4.44922Z" fill="#515151"/>
<path d="M108.277 14.4301H94.2954V4.44922H96.2614V12.6926H100.314V4.44922H102.279V12.6926H106.312V4.44922H108.277V14.4301Z" fill="#515151"/>
<path d="M115.059 4.25623C116.343 4.25623 117.353 4.66164 118.089 5.47247C118.837 6.27042 119.211 7.39014 119.211 8.83161V14.4302H117.807L117.346 12.8665C117.012 13.3684 116.564 13.7866 116.002 14.1213C115.44 14.4559 114.765 14.6233 113.976 14.6233C113.28 14.6233 112.658 14.4881 112.11 14.2178C111.562 13.9476 111.134 13.5743 110.826 13.0981C110.518 12.609 110.365 12.0621 110.365 11.4571C110.365 10.5176 110.753 9.7647 111.528 9.19841C112.304 8.63211 113.427 8.34897 114.898 8.34897H117.245C117.192 7.56388 116.965 6.95898 116.564 6.53426C116.162 6.09667 115.628 5.87787 114.958 5.87787C114.45 5.87787 114.002 5.99371 113.615 6.22537C113.227 6.45705 112.932 6.75949 112.732 7.13273L110.906 6.84315C111.174 6.04519 111.689 5.41455 112.451 4.95122C113.214 4.48789 114.082 4.25623 115.059 4.25623ZM114.397 13.0208C115.24 13.0208 115.921 12.757 116.444 12.2294C116.978 11.6888 117.245 10.9487 117.245 10.0092V9.8934H114.958C113.22 9.8934 112.351 10.3953 112.351 11.3992C112.351 11.8882 112.538 12.2809 112.912 12.5768C113.287 12.8729 113.782 13.0208 114.397 13.0208Z" fill="#515151"/>
<path d="M124.709 14.4302H121.8V4.4493H123.706V12.3066H124.006L128.2 4.4493H131.108V14.4302H129.202V6.5922H128.902L124.709 14.4302ZM126.474 3.15584C125.605 3.15584 124.876 2.93705 124.288 2.49946C123.713 2.049 123.371 1.37975 123.265 0.491699H124.869C124.936 0.903548 125.104 1.21887 125.371 1.43767C125.651 1.64359 126.019 1.74655 126.474 1.74655C126.928 1.74655 127.29 1.64359 127.557 1.43767C127.838 1.21887 128.005 0.903548 128.059 0.491699H129.684C129.563 1.37975 129.209 2.049 128.62 2.49946C128.045 2.93705 127.33 3.15584 126.474 3.15584Z" fill="#515151"/>
<path d="M138.343 14.4301H136.377V6.18671H132.787V4.44922H141.934V6.18671H138.343V14.4301Z" fill="#515151"/>
<path d="M153.282 9.37215C153.282 9.62956 153.275 9.82905 153.261 9.97062H144.695C144.803 10.8586 145.164 11.5666 145.778 12.0942C146.394 12.6219 147.176 12.8857 148.125 12.8857C148.782 12.8857 149.363 12.7635 149.871 12.5189C150.393 12.2615 150.787 11.9269 151.055 11.5151L152.901 11.8046C152.499 12.7055 151.85 13.4006 150.954 13.8896C150.072 14.3787 149.089 14.6233 148.006 14.6233C146.975 14.6233 146.053 14.4045 145.237 13.9668C144.421 13.5164 143.786 12.8986 143.332 12.1136C142.877 11.3284 142.649 10.4404 142.649 9.44937C142.649 8.4455 142.877 7.55101 143.332 6.76593C143.786 5.98084 144.415 5.36951 145.218 4.93191C146.019 4.48145 146.936 4.25623 147.966 4.25623C148.982 4.25623 149.891 4.48145 150.694 4.93191C151.51 5.36951 152.145 5.98084 152.6 6.76593C153.054 7.53814 153.282 8.40688 153.282 9.37215ZM147.966 5.9358C147.176 5.9358 146.495 6.16102 145.92 6.61148C145.358 7.06194 144.983 7.66684 144.796 8.42619H151.135C150.961 7.67971 150.586 7.08124 150.011 6.63079C149.45 6.16746 148.768 5.9358 147.966 5.9358Z" fill="#515151"/>
<path d="M166.881 9.19835C167.417 9.3914 167.844 9.70672 168.165 10.1443C168.5 10.569 168.667 11.071 168.667 11.6501C168.667 12.1779 168.507 12.654 168.186 13.0787C167.878 13.5035 167.443 13.838 166.881 14.0826C166.32 14.3143 165.678 14.4301 164.956 14.4301H160.001V4.44922H164.775C165.458 4.44922 166.065 4.56505 166.601 4.79671C167.136 5.02838 167.551 5.34371 167.844 5.74268C168.152 6.14166 168.306 6.59855 168.306 7.11337C168.306 7.60244 168.179 8.02715 167.925 8.38752C167.684 8.73501 167.336 9.00529 166.881 9.19835ZM161.967 6.05157V8.50335H164.775C165.23 8.50335 165.604 8.39395 165.899 8.17516C166.193 7.9435 166.34 7.64749 166.34 7.28712C166.34 6.92675 166.193 6.63073 165.899 6.39907C165.604 6.1674 165.23 6.05157 164.775 6.05157H161.967ZM164.956 12.8278C165.477 12.8278 165.899 12.6991 166.22 12.4417C166.541 12.1842 166.701 11.8496 166.701 11.4378C166.701 11.0259 166.541 10.6913 166.22 10.4339C165.899 10.1765 165.477 10.0478 164.956 10.0478H161.967V12.8278H164.956Z" fill="#515151"/>
<path d="M73.8534 46.2909H68.1107L59.9396 23.8943H64.1728L70.7031 42.3516H71.3595L78.1194 23.8943H82.287L73.8534 46.2909Z" fill="#515151"/>
<path d="M92.5638 34.6955L103.196 46.2909H98.0112L89.3479 36.6969H88.3635V46.2909H84.4255V23.8943H88.3635V33.0118H89.3151L97.5189 23.8943H102.376L92.5638 34.6955Z" fill="#515151"/>
<path d="M115.089 46.2909H111.25V23.8943H117.419L123.719 40.8268H124.245L130.676 23.8943H136.714V46.2909H132.875V28.9772H132.35L125.754 46.2909H122.078L115.614 28.9772H115.089V46.2909Z" fill="#515151"/>
<path d="M152.787 29.7714H156.626L149.637 48.3558C149.045 49.9229 148.28 51.0561 147.339 51.755C146.42 52.4538 145.185 52.8033 143.632 52.8033H141.039L140.711 49.4677H143.893C144.529 49.4677 145.01 49.33 145.338 49.0546C145.687 48.8005 145.983 48.3452 146.224 47.6886L146.42 47.1803L138.84 29.7714H142.876L147.898 41.6845H148.422L152.787 29.7714Z" fill="#515151"/>
<path d="M167.84 37.8723C168.781 38.1476 169.557 38.6241 170.17 39.3019C170.805 39.9584 171.122 40.7738 171.122 41.748C171.122 42.6587 170.826 43.4847 170.236 44.2259C169.667 44.946 168.835 45.5284 167.742 45.9732C166.67 46.3968 165.434 46.6085 164.034 46.6085C162.174 46.6085 160.577 46.185 159.242 45.3378C157.93 44.4907 157.066 43.3682 156.65 41.9704L160.128 41.3985C160.501 42.1398 160.992 42.6798 161.606 43.0187C162.218 43.3364 163.016 43.4953 164.001 43.4953C165.073 43.4953 165.894 43.3153 166.462 42.9552C167.052 42.5951 167.348 42.0975 167.348 41.4621C167.348 40.2125 166.232 39.5878 164.001 39.5878H161.867V36.4109H164.001C165.007 36.4109 165.773 36.2521 166.298 35.9344C166.823 35.5956 167.085 35.1402 167.085 34.5683C167.085 33.9542 166.812 33.4671 166.265 33.1071C165.718 32.747 165.04 32.567 164.231 32.567C163.422 32.567 162.688 32.7576 162.032 33.1389C161.398 33.52 160.906 34.0389 160.555 34.6954L157.077 34.1237C157.58 32.5988 158.477 31.4445 159.768 30.6609C161.08 29.8561 162.612 29.4537 164.361 29.4537C165.609 29.4537 166.725 29.6549 167.709 30.0573C168.693 30.4597 169.46 31.0209 170.006 31.7411C170.575 32.4611 170.859 33.2764 170.859 34.1872C170.859 35.0979 170.575 35.8814 170.006 36.538C169.46 37.1945 168.737 37.6393 167.84 37.8723Z" fill="#515151"/>
<path d="M174.071 46.2908V29.7714H177.845V34.473H180.503C181.859 34.473 183.062 34.7272 184.112 35.2354C185.162 35.7226 185.982 36.4215 186.573 37.3322C187.164 38.2217 187.459 39.2382 187.459 40.382C187.459 41.5256 187.164 42.5528 186.573 43.4634C185.982 44.353 185.151 45.0518 184.079 45.5602C183.03 46.0472 181.837 46.2908 180.503 46.2908H174.071ZM193.268 46.2908H189.494V29.7714H193.268V46.2908ZM180.503 43.114C181.443 43.114 182.209 42.8599 182.8 42.3515C183.39 41.8433 183.686 41.1867 183.686 40.382C183.686 39.5771 183.39 38.9206 182.8 38.4123C182.209 37.9041 181.443 37.6499 180.503 37.6499H177.845V43.114H180.503Z" fill="#515151"/>
<path d="M212.427 46.2908H207.471L201.564 39.7148H200.645V46.2908H196.872V29.7714H200.645V36.1885H201.564L207.275 29.7714H211.77L204.584 37.7134L212.427 46.2908Z" fill="#515151"/>
<path d="M230 37.8405C230 38.1582 229.978 38.55 229.934 39.0159H216.218C216.393 40.3078 216.939 41.3456 217.858 42.1292C218.777 42.8916 219.948 43.2729 221.37 43.2729C222.332 43.2729 223.196 43.0929 223.962 42.7328C224.749 42.3728 225.352 41.8857 225.767 41.2714L229.311 41.8433C228.699 43.3682 227.638 44.5436 226.128 45.3696C224.64 46.1956 222.977 46.6085 221.141 46.6085C219.434 46.6085 217.902 46.2485 216.546 45.5284C215.211 44.7872 214.162 43.7706 213.396 42.4786C212.651 41.1655 212.28 39.6831 212.28 38.0311C212.28 36.3792 212.651 34.9072 213.396 33.6153C214.162 32.3022 215.211 31.2857 216.546 30.5655C217.902 29.8243 219.434 29.4537 221.141 29.4537C222.847 29.4537 224.367 29.8243 225.701 30.5655C227.058 31.2857 228.107 32.2916 228.852 33.5836C229.618 34.8543 230 36.2733 230 37.8405ZM221.141 32.6305C220.003 32.6305 219.007 32.9482 218.154 33.5836C217.323 34.219 216.754 35.0767 216.448 36.1568H225.898C225.57 35.0979 224.979 34.2507 224.126 33.6153C223.295 32.9588 222.299 32.6305 221.141 32.6305Z" fill="#515151"/>
<path fill-rule="evenodd" clip-rule="evenodd" d="M21.4102 4.47832H23.1945C28.2764 4.47832 31.9622 4.48095 34.7748 4.85441C37.5515 5.22309 39.2896 5.93273 40.5866 7.21366C41.8837 8.49459 42.6022 10.211 42.9755 12.9533C43.1809 14.4615 43.2755 16.2239 43.3191 18.3232C40.4676 16.0463 35.316 12.0551 29.4393 12.0551C25.3799 12.0551 22.1356 14.2582 18.4927 16.732C14.062 19.7408 9.0418 23.1499 1.24836 23.4822C1.24998 18.928 1.27407 15.5607 1.62905 12.9533C2.00237 10.211 2.72094 8.49459 4.01798 7.21366C5.31502 5.93273 7.05306 5.22309 9.82981 4.85441C12.6425 4.48095 16.3283 4.47832 21.4102 4.47832ZM-0.000732252 24.3898C-0.000731369 14.422 -0.000730855 9.43809 3.13483 6.34148C6.27038 3.24487 11.317 3.24487 21.4102 3.24487H23.1945C33.2876 3.24487 38.3343 3.24487 41.4698 6.34148C44.0217 8.86173 44.4967 12.6321 44.5851 19.322C44.6054 20.8519 44.6054 22.5346 44.6054 24.3898V26.1519C44.6054 30.5128 44.6054 33.9197 44.3427 36.6321C44.0052 40.1194 43.2335 42.4584 41.4698 44.2002C39.4384 46.2063 36.6049 46.9128 32.1167 47.1616C29.6772 47.2968 26.7487 47.2968 23.1945 47.2968H21.4102C17.6253 47.2968 14.55 47.2968 12.019 47.1335C7.80077 46.8614 5.09455 46.1356 3.13483 44.2002C0.0154059 41.1195 -0.000645556 36.1709 -0.000732422 26.3054C-0.000732417 26.2543 -0.000732412 26.2031 -0.000732408 26.1519L-0.000732252 24.3898ZM34.5687 25.7003C34.5687 24.6116 35.4735 23.729 36.576 23.729C37.6784 23.729 38.5832 24.6116 38.5832 25.7003V33.6517C38.5832 34.7405 37.6784 35.6231 36.576 35.6231C35.4735 35.6231 34.5687 34.7405 34.5687 33.6517V25.7003ZM29.4402 18.6632C28.3378 18.6632 27.4329 19.5458 27.4329 20.6346V38.7178C27.4329 39.8066 28.3378 40.6892 29.4402 40.6892C30.5426 40.6892 31.4475 39.8066 31.4475 38.7178V20.6346C31.4475 19.5458 30.5426 18.6632 29.4402 18.6632ZM20.2958 25.7003C20.2958 24.6116 21.2007 23.729 22.303 23.729C23.4055 23.729 24.3104 24.6116 24.3104 25.7003V33.6517C24.3104 34.7405 23.4055 35.6231 22.303 35.6231C21.2007 35.6231 20.2958 34.7405 20.2958 33.6517V25.7003ZM15.1646 26.5923C14.0621 26.5923 13.1573 27.4749 13.1573 28.5636V30.7882C13.1573 31.877 14.0621 32.7596 15.1646 32.7596C16.267 32.7596 17.1718 31.877 17.1718 30.7882V28.5636C17.1718 27.4749 16.267 26.5923 15.1646 26.5923ZM6.02017 28.5636C6.02017 27.4749 6.92501 26.5923 8.02744 26.5923C9.12986 26.5923 10.0347 27.4749 10.0347 28.5636V30.7882C10.0347 31.877 9.12986 32.7596 8.02744 32.7596C6.92501 32.7596 6.02017 31.877 6.02017 30.7882V28.5636Z" fill="#515151"/>
</g>
<defs>
<clipPath id="clip0_3_78">
<rect width="230" height="53" fill="white"/>
</clipPath>
</defs>
</svg>
